<svg xmlns="http://www.w3.org/2000/svg" viewBox="0 0 1200 525" role="img" aria-labelledby="title desc">
  <title id="title">Codebreaker game thumbnail</title>
  <desc id="desc">A neon terminal scene with code blocks, a cipher prompt, and a cracked access panel.</desc>
  <defs>
    <linearGradient id="bg" x1="0" y1="0" x2="1" y2="1">
      <stop offset="0%" stop-color="#11131a"/>
      <stop offset="100%" stop-color="#08090d"/>
    </linearGradient>
    <linearGradient id="glow" x1="0" y1="0" x2="1" y2="0">
      <stop offset="0%" stop-color="#c6ff3d"/>
      <stop offset="100%" stop-color="#9a7bff"/>
    </linearGradient>
  </defs>
  <rect width="1200" height="525" fill="url(#bg)"/>
  <rect x="48" y="48" width="1104" height="429" rx="26" fill="#101219" stroke="rgba(198,255,61,.22)" stroke-width="4"/>
  <rect x="96" y="102" width="560" height="272" rx="20" fill="#0a0b0f" stroke="rgba(244,242,234,.12)" stroke-width="3"/>
  <rect x="120" y="128" width="220" height="20" rx="10" fill="url(#glow)" opacity=".95"/>
  <rect x="120" y="172" width="418" height="20" rx="10" fill="#1e2230"/>
  <rect x="120" y="214" width="345" height="20" rx="10" fill="#1e2230"/>
  <rect x="120" y="256" width="300" height="20" rx="10" fill="#1e2230"/>
  <rect x="120" y="298" width="380" height="20" rx="10" fill="#1e2230"/>
  <g fill="#c6ff3d" opacity=".95" font-family="Arial, Helvetica, sans-serif" font-size="38" font-weight="700">
    <text x="702" y="156">{ }</text>
    <text x="742" y="214">&lt;/&gt;</text>
    <text x="708" y="275">01</text>
    <text x="790" y="340">10</text>
  </g>
  <rect x="676" y="102" width="408" height="272" rx="20" fill="#0e1014" stroke="rgba(154,123,255,.26)" stroke-width="3"/>
  <circle cx="818" cy="239" r="92" fill="none" stroke="#c6ff3d" stroke-width="16" opacity=".8"/>
  <circle cx="818" cy="239" r="44" fill="none" stroke="#9a7bff" stroke-width="10" opacity=".85"/>
  <path d="M742 320h152" stroke="#ff855c" stroke-width="10" stroke-linecap="round"/>
  <path d="M784 182l68 114" stroke="#55e8ff" stroke-width="10" stroke-linecap="round"/>
  <text x="96" y="430" fill="#f4f2ea" font-family="Arial, Helvetica, sans-serif" font-size="28" font-weight="700" letter-spacing="4">CODEBREAKER</text>
  <text x="96" y="464" fill="#9a7bff" font-family="Arial, Helvetica, sans-serif" font-size="14" font-weight="700" letter-spacing="6">CAMPAIGN // 30 LEVELS</text>
</svg>
