<svg xmlns="http://www.w3.org/2000/svg" viewBox="0 0 1200 675" role="img" aria-labelledby="title desc">
  <title id="title">Codebreaker V2 thumbnail</title>
  <desc id="desc">Neon terminal card with code blocks and signal traces.</desc>
  <defs>
    <linearGradient id="bg" x1="0" x2="1">
      <stop offset="0" stop-color="#0b0d12"/>
      <stop offset="1" stop-color="#131a27"/>
    </linearGradient>
    <linearGradient id="glow" x1="0" x2="1">
      <stop offset="0" stop-color="#cbff2f"/>
      <stop offset="1" stop-color="#87f4ff"/>
    </linearGradient>
  </defs>
  <rect width="1200" height="675" rx="26" fill="url(#bg)"/>
  <rect x="60" y="60" width="1080" height="555" rx="18" fill="none" stroke="rgba(255,255,255,0.08)"/>
  <g fill="none" stroke="url(#glow)" stroke-width="6">
    <path d="M140 465h210M250 385h110M380 305h280M640 225h220"/>
    <path d="M280 140l120 120-90 90 160 160"/>
  </g>
  <g fill="#f3f6f8" stroke="#cbff2f" stroke-width="5">
    <rect x="150" y="145" width="280" height="92" rx="16"/>
    <rect x="500" y="145" width="400" height="92" rx="16"/>
    <rect x="930" y="145" width="120" height="92" rx="16"/>
    <rect x="150" y="270" width="150" height="92" rx="16"/>
    <rect x="330" y="270" width="280" height="92" rx="16"/>
  </g>
  <g font-family="monospace" font-weight="700" fill="#0a0b0f">
    <text x="185" y="205" font-size="38">BINARY</text>
    <text x="530" y="205" font-size="38">BUG HUNT</text>
    <text x="958" y="205" font-size="34">V2</text>
    <text x="186" y="330" font-size="36">LOGIC</text>
    <text x="378" y="330" font-size="34">REPAIR</text>
  </g>
  <text x="82" y="95" font-family="monospace" font-size="32" fill="#cbff2f" font-weight="700">CODEBREAKER V2</text>
  <text x="82" y="128" font-family="monospace" font-size="18" fill="#9ca3af" letter-spacing="3">SOLVE. ADAPT. SURVIVE.</text>
  <g fill="#cbff2f" opacity=".9">
    <circle cx="102" cy="545" r="8"/>
    <circle cx="1090" cy="545" r="8"/>
    <circle cx="1030" cy="120" r="6"/>
    <circle cx="1120" cy="395" r="6"/>
  </g>
</svg>
