<svg xmlns="http://www.w3.org/2000/svg" viewBox="0 0 640 360"><rect width="640" height="360" fill="#080b10"/><g stroke="#1a2430" opacity=".75"><path d="M0 40h640M0 80h640M0 120h640M0 160h640M0 200h640M0 240h640M0 280h640M0 320h640M40 0v360M80 0v360M120 0v360M160 0v360M200 0v360M240 0v360M280 0v360M320 0v360M360 0v360M400 0v360M440 0v360M480 0v360M520 0v360M560 0v360M600 0v360"/></g><g fill="#c6ff3d" stroke="#c6ff3d"><path d="M142 56h34l8 14-8 14h-34l-8-14z"/><path d="M232 56h34l8 14-8 14h-34l-8-14z"/><path d="M322 56h34l8 14-8 14h-34l-8-14z"/><path d="M412 56h34l8 14-8 14h-34l-8-14z"/><path d="M187 108h34l8 14-8 14h-34l-8-14z" fill="#b55cff"/><path d="M277 108h34l8 14-8 14h-34l-8-14z" fill="#b55cff"/><path d="M367 108h34l8 14-8 14h-34l-8-14z" fill="#b55cff"/></g><path d="M0 292h640" stroke="#ff526b" stroke-width="2" opacity=".6"/><path d="M320 312l-24 30h48z" fill="#55e8ff" stroke="#c6ff3d" stroke-width="3"/><circle cx="320" cy="328" r="48" fill="none" stroke="#55e8ff" opacity=".2"/><text x="24" y="34" fill="#c6ff3d" font-family="Arial" font-size="16" font-weight="700" letter-spacing="3">PACKET SIEGE</text><text x="24" y="340" fill="#8b94a5" font-family="Arial" font-size="12" letter-spacing="2">DEFEND THE CORE // ONE MORE WAVE</text></svg>
