<svg xmlns="http://www.w3.org/2000/svg" viewBox="0 0 960 420" role="img" aria-labelledby="title desc">
  <title id="title">Symbol Catch game scene</title>
  <desc id="desc">A target symbol falls through a neon grid toward a collector.</desc>
  <defs><radialGradient id="bg" cx="50%" cy="35%"><stop offset="0" stop-color="#252038"/><stop offset="1" stop-color="#0e1014"/></radialGradient><filter id="glow"><feGaussianBlur stdDeviation="8" result="b"/><feMerge><feMergeNode in="b"/><feMergeNode in="SourceGraphic"/></feMerge></filter></defs>
  <rect width="960" height="420" fill="url(#bg)"/>
  <g opacity=".18" stroke="#f4f2ea"><path d="M0 70h960M0 140h960M0 210h960M0 280h960M0 350h960M80 0v420M160 0v420M240 0v420M320 0v420M400 0v420M480 0v420M560 0v420M640 0v420M720 0v420M800 0v420M880 0v420"/></g>
  <g filter="url(#glow)" fill="#c6ff3d"><path d="m480 72 38 38-38 38-38-38z"/><path d="m480 215 25 25-25 25-25-25z"/></g>
  <g fill="#9a7bff" opacity=".9"><circle cx="220" cy="170" r="18"/><path d="m720 155 24-40 24 40-24 40z"/><path d="m180 285 26-22 26 22-26 22z"/></g>
  <path d="M300 344h360" stroke="#c6ff3d" stroke-width="5" opacity=".9" filter="url(#glow)"/>
  <text x="28" y="35" fill="#c6ff3d" font-family="Arial,sans-serif" font-size="13" font-weight="700" letter-spacing="3">SYMBOL CATCH // LIVE</text>
  <text x="932" y="390" fill="#98979b" font-family="Arial,sans-serif" font-size="12" text-anchor="end" letter-spacing="2">MATCH // REACT // CATCH</text>
</svg>
